<svg xmlns="http://www.w3.org/2000/svg" xmlns:xlink="http://www.w3.org/1999/xlink" width="500" zoomAndPan="magnify" viewBox="0 0 375 374.999991" height="500" preserveAspectRatio="xMidYMid meet" version="1.0"><defs><g/><clipPath id="id1"><path d="M 109.527344 141 L 158 141 L 158 189.5625 L 109.527344 189.5625 Z M 109.527344 141 " clip-rule="nonzero"/></clipPath><clipPath id="id2"><path d="M 162 140.8125 L 211 140.8125 L 211 189.5625 L 162 189.5625 Z M 162 140.8125 " clip-rule="nonzero"/></clipPath><clipPath id="id3"><path d="M 114 182 L 136 182 L 136 189.5625 L 114 189.5625 Z M 114 182 " clip-rule="nonzero"/></clipPath><clipPath id="id4"><path d="M 122 157 L 147 157 L 147 189.5625 L 122 189.5625 Z M 122 157 " clip-rule="nonzero"/></clipPath><clipPath id="id5"><path d="M 183 151 L 198 151 L 198 189.5625 L 183 189.5625 Z M 183 151 " clip-rule="nonzero"/></clipPath><clipPath id="id6"><path d="M 216.328125 141.347656 L 264.800781 141.347656 L 264.800781 190.300781 L 216.328125 190.300781 Z M 216.328125 141.347656 " clip-rule="nonzero"/></clipPath><clipPath id="id7"><path d="M 217 153 L 264.800781 153 L 264.800781 176 L 217 176 Z M 217 153 " clip-rule="nonzero"/></clipPath><clipPath id="id8"><path d="M 219 144.636719 L 265.457031 144.636719 L 265.457031 190 L 219 190 Z M 219 144.636719 " clip-rule="nonzero"/></clipPath></defs><rect x="-37.5" width="450" fill="#ffffff" y="-37.499999" height="449.999989" fill-opacity="1"/><rect x="-37.5" width="450" fill="#071e3d" y="-37.499999" height="449.999989" fill-opacity="1"/><rect x="-37.5" width="450" fill="#ffffff" y="-37.499999" height="449.999989" fill-opacity="1"/><rect x="-37.5" width="450" fill="#071e3d" y="-37.499999" height="449.999989" fill-opacity="1"/><g clip-path="url(#id1)"><path fill="#1a248a" d="M 156.214844 178.980469 C 156.09375 178.964844 155.914062 178.472656 155.960938 178.238281 C 156.082031 177.605469 156.148438 176.851562 156.535156 176.40625 C 157.160156 175.679688 156.789062 175.144531 156.582031 174.476562 C 156.429688 173.984375 156.445312 173.433594 156.425781 172.90625 C 156.414062 172.425781 156.429688 171.941406 156.484375 171.46875 C 156.511719 171.21875 156.648438 170.980469 156.730469 170.761719 C 155.933594 170.746094 155.898438 170.734375 156.105469 169.871094 C 156.371094 168.75 156.128906 167.855469 155.085938 167.230469 C 155.207031 166.753906 155.320312 166.3125 155.46875 165.746094 C 155.351562 165.644531 155.074219 165.40625 154.730469 165.113281 C 155.160156 164.882812 155.496094 164.703125 155.835938 164.519531 C 155.796875 164.4375 155.757812 164.308594 155.691406 164.199219 C 155.457031 163.820312 155.011719 163.441406 155.019531 163.070312 C 155.039062 162.421875 155.402344 161.789062 155.496094 161.128906 C 155.730469 159.523438 155.894531 157.90625 156.082031 156.292969 C 156.089844 156.203125 156.054688 156.101562 156.015625 156.015625 C 155.71875 155.34375 155.984375 154.652344 156.683594 154.449219 C 156.628906 153.757812 156.574219 153.054688 156.519531 152.40625 C 156.710938 152.273438 156.964844 152.09375 157.496094 151.714844 C 156.53125 151.457031 155.84375 151.269531 155.371094 151.144531 C 155.210938 150.5625 155.074219 150.074219 154.914062 149.503906 C 155.09375 149.425781 155.390625 149.296875 155.808594 149.113281 C 155.597656 147.429688 155.382812 145.714844 155.179688 144.070312 C 153.886719 143.828125 152.542969 143.574219 151.238281 143.332031 C 150.570312 144.496094 150.589844 144.460938 149.445312 143.835938 C 149.117188 143.65625 148.644531 143.730469 148.242188 143.691406 C 148.179688 143.792969 148.121094 143.894531 148.0625 143.996094 C 147.511719 143.078125 146.964844 142.160156 146.414062 141.238281 C 146.292969 141.65625 146.167969 142.101562 146.042969 142.542969 C 145.957031 142.527344 145.871094 142.511719 145.78125 142.492188 C 145.757812 142.21875 145.773438 141.925781 145.6875 141.667969 C 145.628906 141.484375 145.351562 141.191406 145.304688 141.214844 C 144.507812 141.621094 143.628906 141.957031 142.988281 142.546875 C 142.609375 142.898438 142.445312 142.949219 142.042969 142.757812 C 141.644531 142.5625 141.167969 142.238281 140.804688 142.324219 C 139.882812 142.535156 139.007812 142.941406 138.234375 143.230469 C 137.886719 143.070312 137.515625 142.742188 137.183594 142.777344 C 136.292969 142.878906 135.554688 143.4375 134.519531 142.648438 C 133.945312 142.207031 132.496094 141.921875 131.964844 142.984375 C 131.328125 142.824219 130.8125 142.53125 130.367188 142.617188 C 129.84375 142.71875 129.378906 143.144531 128.980469 143.378906 C 128.117188 142.679688 127.15625 142.449219 126.125 142.339844 C 124.9375 142.21875 123.746094 142.066406 122.574219 141.847656 C 121.976562 141.734375 121.503906 141.699219 121.132812 142.28125 C 120.863281 142.695312 120.523438 143.066406 120.367188 143.265625 C 120.277344 143.980469 120.207031 144.535156 120.136719 145.074219 C 119.011719 144.953125 119.269531 144.253906 119.414062 143.65625 C 116.359375 142.476562 113.167969 142.890625 110.039062 142.417969 C 109.945312 143.773438 109.855469 145.097656 109.765625 146.402344 C 110.179688 146.488281 110.457031 146.546875 110.78125 146.609375 C 110.65625 147.179688 111.238281 148.03125 110.054688 148 C 110.753906 149.207031 110.753906 149.207031 110.339844 149.417969 C 110.339844 150.097656 110.429688 150.660156 110.3125 151.171875 C 110.210938 151.609375 109.875 151.988281 109.527344 152.59375 C 110.542969 152.414062 111.109375 152.867188 110.945312 153.363281 C 110.390625 155.019531 110.410156 156.679688 110.890625 158.347656 C 111.0625 158.949219 111.441406 159.632812 111.289062 160.148438 C 111.085938 160.820312 110.453125 161.363281 110.003906 161.964844 C 110.308594 162.582031 110.582031 163.128906 110.867188 163.703125 C 110.789062 163.730469 110.496094 163.828125 110.390625 163.863281 C 110.277344 165.117188 110.171875 166.25 110.0625 167.472656 L 110.1875 169.59375 C 110.027344 169.71875 109.878906 169.863281 109.738281 170.042969 C 109.9375 170.125 110.09375 170.226562 110.230469 170.332031 L 110.480469 174.609375 C 110.621094 176.835938 110.878906 179.03125 109.933594 181.105469 C 109.671875 181.679688 109.824219 181.816406 110.359375 181.871094 C 110.558594 181.890625 110.746094 182.019531 110.949219 182.101562 C 110.457031 182.996094 110.457031 182.996094 110.785156 184.816406 C 111.0625 185.003906 111.339844 185.25 111.355469 185.515625 C 111.410156 186.425781 111.375 187.335938 111.375 188.335938 C 113.039062 188.335938 114.601562 188.410156 116.160156 188.3125 C 117.613281 188.226562 119.058594 187.957031 120.507812 187.769531 C 120.519531 187.863281 120.53125 187.953125 120.542969 188.046875 C 120.316406 188.105469 120.089844 188.167969 119.667969 188.28125 C 121.988281 188.28125 124.089844 188.28125 126.179688 188.28125 C 126.28125 188.035156 126.375 187.800781 126.363281 187.828125 C 126.835938 188.035156 127.175781 188.300781 127.527344 188.316406 C 128.734375 188.367188 129.949219 188.375 131.15625 188.320312 C 131.851562 188.289062 132.539062 188.105469 133.195312 187.996094 C 133.703125 188.132812 134.257812 188.277344 134.882812 188.445312 L 135.835938 188.195312 C 136.425781 188.457031 137.085938 188.253906 137.597656 188.316406 C 137.847656 188.003906 138.015625 187.761719 138.226562 187.566406 C 138.269531 187.527344 138.480469 187.679688 138.664062 187.765625 C 138.5 187.96875 138.382812 188.113281 138.246094 188.28125 C 138.503906 188.320312 138.742188 188.355469 139.175781 188.421875 C 138.582031 188.816406 141.1875 189.554688 141.179688 189.40625 C 141.140625 188.527344 141.851562 188.488281 142.359375 188.371094 C 142.90625 188.242188 143.46875 188.402344 143.714844 189.058594 C 144.023438 189.871094 144.789062 190.152344 145.628906 189.992188 C 147.445312 189.652344 149.277344 189.210938 151.109375 189.175781 C 153.121094 189.136719 155.140625 189.503906 157.335938 189.714844 C 157.394531 189.085938 157.183594 179.101562 156.214844 178.980469 " fill-opacity="1" fill-rule="nonzero"/></g><g clip-path="url(#id2)"><path fill="#1e5aff" d="M 210.671875 182.285156 C 210.445312 181.125 210.03125 180 209.664062 178.867188 C 209.628906 178.753906 209.296875 178.769531 209.191406 178.644531 C 209.035156 178.464844 208.824219 178.222656 208.785156 178.023438 L 208.777344 177.910156 L 209.144531 176.378906 C 209.210938 176.234375 209.292969 176.105469 209.394531 176.003906 C 209.925781 175.464844 209.824219 174.933594 209.570312 174.582031 L 209.230469 173.824219 C 208.996094 172.796875 209.53125 171.722656 209.222656 170.71875 C 209.210938 170.675781 209.519531 170.539062 209.75 170.40625 C 208.765625 170.324219 208.734375 170.316406 208.933594 169.417969 C 209.152344 168.449219 208.964844 167.660156 208.175781 167.023438 C 207.859375 166.769531 208.046875 165.753906 208.429688 165.476562 C 208.292969 165.363281 208.152344 165.246094 208 165.117188 L 208.675781 164.097656 L 207.921875 162.769531 C 207.921875 162.753906 207.917969 162.742188 207.917969 162.730469 C 207.898438 162.015625 208.253906 161.304688 208.347656 160.578125 C 208.515625 159.253906 208.632812 157.925781 208.722656 156.597656 C 208.773438 155.839844 208.730469 155.074219 208.730469 154.285156 C 208.992188 154.222656 209.226562 154.164062 209.515625 154.09375 C 209.46875 153.394531 209.429688 152.75 209.382812 152.03125 C 209.507812 151.9375 209.78125 151.730469 210.289062 151.339844 C 209.371094 151.082031 208.679688 150.886719 208.191406 150.75 C 208.042969 150.207031 207.914062 149.742188 207.753906 149.152344 C 207.910156 149.074219 208.222656 148.921875 208.625 148.726562 C 208.421875 147.058594 208.210938 145.355469 208.007812 143.71875 C 206.730469 143.464844 205.382812 143.199219 204.074219 142.941406 C 203.40625 144.167969 203.410156 144.164062 202.300781 143.46875 C 201.871094 143.195312 201.390625 142.753906 201.121094 143.90625 C 200.445312 142.832031 199.859375 141.90625 199.285156 140.988281 C 199.128906 141.367188 198.964844 141.769531 198.796875 142.183594 C 198.523438 141.617188 198.328125 141.21875 198.136719 140.816406 C 197.355469 141.214844 196.339844 141.425781 195.859375 142.054688 C 195.394531 142.667969 195.15625 142.472656 194.703125 142.3125 C 194.289062 142.167969 193.808594 141.910156 193.4375 142.003906 C 192.570312 142.222656 191.75 142.625 191.226562 142.828125 C 190.585938 142.636719 190.113281 142.324219 189.734375 142.417969 C 188.945312 142.613281 188.175781 143.355469 187.554688 142.171875 C 187.546875 142.15625 187.492188 142.160156 187.460938 142.160156 C 186.472656 142.253906 185.328125 141.542969 184.648438 142.835938 C 183.464844 141.554688 182.632812 142.574219 181.851562 143.042969 C 180.984375 142.296875 179.984375 141.929688 179 142.003906 C 177.679688 142.101562 176.457031 141.921875 175.253906 141.457031 C 174.632812 141.21875 174.273438 141.488281 173.9375 141.957031 C 173.648438 142.359375 173.328125 142.738281 173.023438 143.128906 C 173.082031 143.121094 173.140625 143.113281 173.195312 143.101562 C 173.117188 143.632812 173.042969 144.167969 172.960938 144.71875 C 171.84375 144.625 172.109375 143.914062 172.242188 143.292969 C 169.195312 142.117188 166.023438 142.519531 162.878906 142.058594 C 162.773438 143.460938 162.679688 144.722656 162.582031 146.070312 C 163.316406 146.058594 163.800781 146.289062 163.601562 147.027344 C 163.523438 147.3125 163.25 147.542969 162.953125 147.949219 C 162.988281 148.203125 164.300781 148.710938 163.113281 149.089844 C 163.113281 149.820312 163.335938 150.835938 163.066406 150.996094 C 162.460938 151.355469 162.691406 151.722656 162.675781 151.859375 C 163.203125 152.195312 163.589844 152.4375 163.925781 152.652344 C 163.128906 154.265625 163.429688 155.882812 163.507812 157.464844 C 163.535156 158.035156 163.542969 158.804688 163.886719 159.117188 C 163.914062 159.140625 163.9375 159.164062 163.960938 159.1875 L 163.78125 160.0625 C 162.769531 161.066406 162.84375 162.675781 163.953125 163.277344 C 163.613281 163.382812 163.320312 163.472656 163.277344 163.488281 C 163.050781 165.210938 162.847656 166.765625 162.644531 168.316406 C 162.988281 168.398438 163.285156 168.472656 163.753906 168.585938 C 163.25 169.023438 162.875 169.347656 162.488281 169.6875 C 163.253906 170.050781 163.65625 170.429688 163.476562 171.421875 C 163.257812 172.617188 163.382812 173.882812 163.386719 175.117188 C 163.394531 176.8125 163.621094 178.519531 162.992188 180.167969 C 162.546875 181.34375 162.5625 181.347656 163.914062 181.816406 C 162.648438 182.570312 163.40625 183.566406 163.480469 184.449219 C 163.679688 184.492188 164.015625 184.519531 164.019531 184.578125 C 164.136719 185.660156 164.210938 186.75 164.304688 187.945312 C 170.289062 187.945312 176.21875 187.945312 182.140625 187.945312 L 196.546875 188.703125 C 196.550781 188.71875 196.558594 188.734375 196.5625 188.753906 C 196.820312 189.660156 197.5625 189.769531 198.257812 189.679688 C 199.464844 189.523438 200.644531 189.191406 201.84375 188.980469 C 203.398438 188.707031 204.960938 188.484375 206.476562 189.246094 C 206.367188 189.394531 206.273438 189.523438 206.125 189.722656 C 207.917969 189.046875 207.917969 189.046875 210.136719 189.558594 C 210.199219 188.945312 210.265625 188.351562 210.324219 187.757812 C 210.347656 187.503906 210.324219 187.238281 210.386719 186.996094 C 210.535156 186.429688 210.847656 185.882812 210.867188 185.316406 C 210.898438 184.308594 210.863281 183.273438 210.671875 182.285156 " fill-opacity="1" fill-rule="nonzero"/></g><path fill="#ffffff" d="M 134.46875 145.933594 L 130.722656 147.695312 L 126.660156 146.011719 L 131.042969 148.980469 L 134.46875 145.933594 " fill-opacity="1" fill-rule="evenodd"/><path fill="#ffffff" d="M 121.207031 151.90625 L 118.476562 153.195312 L 115.515625 151.964844 L 118.710938 154.128906 L 121.207031 151.90625 " fill-opacity="1" fill-rule="evenodd"/><path fill="#ffffff" d="M 149.9375 149.785156 L 147.207031 151.074219 L 144.242188 149.84375 L 147.4375 152.007812 L 149.9375 149.785156 " fill-opacity="1" fill-rule="evenodd"/><path fill="#ffffff" d="M 124.09375 183.664062 C 122.9375 171.828125 118.414062 166.1875 118.363281 164.070312 C 118.3125 161.953125 119.503906 159.339844 120.195312 158.628906 C 120.234375 158.589844 124.574219 164.304688 124.09375 183.664062 " fill-opacity="1" fill-rule="evenodd"/><path fill="#ffffff" d="M 134.570312 152.882812 C 135.476562 152.945312 136.484375 153.4375 137.023438 154.082031 C 137.75 154.945312 138.269531 155.9375 138.695312 156.96875 C 139.386719 158.648438 140.035156 160.34375 140.664062 162.042969 C 140.761719 162.300781 140.550781 164.222656 140.492188 164.910156 C 140.734375 164.773438 140.953125 164.648438 141.214844 164.5 C 141.050781 166.46875 140.859375 168.625 140.699219 170.523438 C 140.476562 170.574219 139.832031 168.816406 139.585938 168.042969 C 138.855469 165.730469 136.859375 158.527344 134.101562 158.222656 C 134.269531 156.402344 134.40625 154.714844 134.570312 152.882812 " fill-opacity="1" fill-rule="evenodd"/><path fill="#ffffff" d="M 142.992188 167.230469 C 143.144531 168.605469 143.109375 169.988281 143.046875 171.367188 C 142.921875 174.085938 142.753906 176.84375 142.398438 179.542969 C 142.171875 176.894531 141.609375 172.078125 141.261719 170.289062 C 141.261719 170.289062 141.617188 165.917969 141.730469 164.617188 C 142.050781 164.597656 142.910156 166.535156 142.992188 167.230469 " fill-opacity="1" fill-rule="evenodd"/><path fill="#ffffff" d="M 132.167969 158.828125 C 132.238281 158.121094 132.664062 153.746094 132.722656 153.550781 C 132.84375 153.128906 133.277344 152.882812 133.878906 152.882812 C 133.699219 154.691406 133.519531 156.480469 133.339844 158.292969 C 132.777344 158.382812 132.453125 158.542969 132.167969 158.828125 " fill-opacity="1" fill-rule="evenodd"/><g clip-path="url(#id3)"><path fill="#ffffff" d="M 114.898438 189.277344 C 122.433594 187.808594 119.160156 181.578125 115.246094 184.503906 C 115.613281 183.417969 116.761719 182.542969 117.855469 182.445312 C 121.210938 181.8125 123.496094 184.753906 123.554688 184.871094 C 128.183594 179.324219 134.554688 188.445312 135.699219 189.125 C 135.757812 189.160156 114.6875 189.332031 114.898438 189.277344 " fill-opacity="1" fill-rule="evenodd"/></g><g clip-path="url(#id4)"><path fill="#ffffff" d="M 139.867188 180.652344 C 139.722656 180.652344 139.605469 180.535156 139.605469 180.390625 C 139.605469 180.242188 139.722656 180.125 139.867188 180.125 C 140.011719 180.125 140.128906 180.242188 140.128906 180.390625 C 140.128906 180.535156 140.011719 180.652344 139.867188 180.652344 Z M 139.183594 179.324219 C 139.007812 179.324219 138.867188 179.183594 138.867188 179.007812 C 138.867188 178.832031 139.007812 178.6875 139.183594 178.6875 C 139.355469 178.6875 139.5 178.832031 139.5 179.007812 C 139.5 179.183594 139.355469 179.324219 139.183594 179.324219 Z M 138.417969 177.871094 C 138.167969 177.871094 137.964844 177.667969 137.964844 177.417969 C 137.964844 177.167969 138.167969 176.964844 138.417969 176.964844 C 138.664062 176.964844 138.867188 177.167969 138.867188 177.417969 C 138.867188 177.667969 138.664062 177.871094 138.417969 177.871094 Z M 137.496094 176.164062 C 137.164062 176.164062 136.894531 175.894531 136.894531 175.558594 C 136.894531 175.226562 137.164062 174.953125 137.496094 174.953125 C 137.828125 174.953125 138.097656 175.226562 138.097656 175.558594 C 138.097656 175.894531 137.828125 176.164062 137.496094 176.164062 Z M 136.183594 174.109375 C 135.753906 174.109375 135.40625 173.757812 135.40625 173.328125 C 135.40625 172.894531 135.753906 172.542969 136.183594 172.542969 C 136.613281 172.542969 136.960938 172.894531 136.960938 173.328125 C 136.960938 173.757812 136.613281 174.109375 136.183594 174.109375 Z M 134.699219 171.84375 C 134.191406 171.84375 133.78125 171.429688 133.78125 170.921875 C 133.78125 170.410156 134.191406 170 134.699219 170 C 135.203125 170 135.613281 170.410156 135.613281 170.921875 C 135.613281 171.429688 135.203125 171.84375 134.699219 171.84375 Z M 132.863281 169.503906 C 132.285156 169.503906 131.816406 169.035156 131.816406 168.453125 C 131.816406 167.871094 132.285156 167.402344 132.863281 167.402344 C 133.4375 167.402344 133.90625 167.871094 133.90625 168.453125 C 133.90625 169.035156 133.4375 169.503906 132.863281 169.503906 Z M 130.445312 167.238281 C 129.8125 167.238281 129.300781 166.726562 129.300781 166.089844 C 129.300781 165.457031 129.8125 164.941406 130.445312 164.941406 C 131.074219 164.941406 131.585938 165.457031 131.585938 166.089844 C 131.585938 166.726562 131.074219 167.238281 130.445312 167.238281 Z M 146.550781 189.277344 C 143.621094 184.765625 143.113281 179.332031 141.878906 174.214844 C 140.6875 169.292969 136.621094 158.71875 133.773438 158.710938 C 132.902344 158.707031 132.039062 159.359375 132.132812 160.945312 C 136.402344 165.59375 139.246094 172.289062 139.933594 174.011719 C 140.628906 175.769531 141.265625 177.550781 141.867188 179.34375 C 142.171875 180.257812 142.46875 181.171875 142.757812 182.09375 C 142.847656 182.386719 139.324219 172.507812 135.773438 167.3125 C 132.722656 162.847656 128.023438 158.265625 122.351562 157.960938 C 122.964844 160.042969 123.695312 162.046875 124.117188 164.183594 C 124.546875 166.351562 124.847656 168.5625 124.960938 170.769531 C 125.179688 175.070312 124.851562 179.433594 124.09375 183.664062 C 125.191406 181.898438 128.105469 182.148438 129.707031 182.859375 C 131.597656 183.691406 133.074219 185.449219 134.507812 186.886719 C 135.242188 187.628906 135.976562 188.320312 136.886719 188.847656 C 137.890625 189.425781 138.960938 189.273438 140.089844 189.277344 C 142.242188 189.277344 144.394531 189.277344 146.550781 189.277344 C 146.421875 189.277344 146.472656 189.160156 146.550781 189.277344 " fill-opacity="1" fill-rule="evenodd"/></g><g clip-path="url(#id5)"><path fill="#ffffff" d="M 197.199219 189.4375 C 188.257812 178.496094 185.839844 167.300781 187.398438 152.917969 C 187.402344 152.917969 187.679688 152.054688 187.71875 151.960938 L 186.824219 151.699219 C 186.785156 151.75 186.554688 152.226562 186.519531 152.285156 C 186.117188 153.335938 183.054688 162.324219 183.585938 171.355469 C 184.074219 178.21875 185.378906 183.949219 187.363281 188.785156 C 190.65625 188.753906 193.988281 188.71875 197.199219 189.4375 " fill-opacity="1" fill-rule="evenodd"/></g><path fill="#ffffff" d="M 187.09375 152.164062 C 183.074219 154.179688 181.457031 162.375 181.089844 167.179688 C 180.519531 169.179688 180.917969 171.3125 180.648438 173.257812 C 180.289062 173.007812 179.988281 173.066406 179.457031 171.902344 C 166.972656 155.308594 182.792969 152.65625 184.632812 150.734375 C 176.332031 151.660156 173.621094 155.640625 170.703125 156.816406 C 170.742188 153.652344 173.589844 148.699219 176.148438 147.273438 C 180.222656 145.5625 185.75 148.3125 187.359375 150.222656 C 192.152344 149.007812 194.523438 148.246094 197.570312 151.148438 C 200.503906 153.4375 200.574219 157.210938 201.367188 161.480469 C 200.289062 160.734375 193.550781 153.164062 189.328125 152.378906 C 190.21875 153.789062 202.367188 163.503906 192.847656 174.757812 C 192.566406 173.230469 191.726562 158.554688 187.867188 152.964844 C 187.582031 152.570312 187.09375 152.164062 187.09375 152.164062 " fill-opacity="1" fill-rule="evenodd"/><g clip-path="url(#id6)"><path fill="#ff8c20" d="M 264.757812 184.808594 C 264.636719 183.777344 264.605469 182.730469 264.535156 181.691406 C 264.457031 181.722656 264.378906 181.75 264.300781 181.78125 C 264.15625 181.449219 263.988281 181.121094 263.875 180.777344 C 263.644531 180.078125 263.902344 179.085938 262.589844 178.96875 C 262.792969 178.082031 262.738281 177.011719 263.242188 176.46875 C 263.777344 175.894531 263.6875 175.496094 263.441406 175.066406 C 262.921875 174.15625 262.917969 173.234375 263.128906 172.261719 C 263.171875 172.066406 263.078125 171.839844 263.128906 171.644531 C 263.203125 171.359375 263.347656 171.089844 263.476562 170.785156 C 263.058594 170.746094 262.296875 171.058594 262.789062 169.960938 C 263.121094 169.222656 262.933594 168.296875 262.253906 167.6875 C 261.558594 167.0625 261.835938 166.53125 262.292969 165.949219 C 262.042969 165.753906 261.789062 165.554688 261.40625 165.257812 C 261.863281 165.050781 262.21875 164.882812 262.578125 164.71875 C 262.421875 164.417969 262.171875 164.089844 262.070312 163.722656 C 261.921875 163.179688 261.757812 162.59375 261.816406 162.046875 C 261.902344 161.230469 262.234375 160.441406 262.351562 159.625 C 262.527344 158.445312 262.601562 157.253906 262.71875 156.058594 C 262.679688 156.050781 262.53125 156.015625 262.410156 155.988281 C 262.519531 155.554688 262.503906 155.0625 262.738281 154.785156 C 263.527344 153.859375 263.613281 153.429688 263.015625 152.570312 C 263.296875 152.371094 263.582031 152.171875 264.09375 151.808594 C 263.144531 151.539062 262.476562 151.351562 262 151.21875 C 261.855469 150.621094 261.742188 150.144531 261.617188 149.613281 C 262.726562 149.28125 262.59375 148.289062 262.464844 147.429688 C 262.300781 146.347656 261.953125 145.296875 261.664062 144.15625 C 260.507812 143.921875 259.195312 143.65625 257.972656 143.410156 C 257.671875 143.828125 257.402344 144.203125 257.167969 144.53125 C 256.425781 144.136719 255.816406 143.808594 255.160156 143.453125 C 255.128906 143.769531 255.113281 143.941406 255.097656 144.113281 C 255.011719 144.144531 254.921875 144.179688 254.835938 144.210938 C 254.273438 143.285156 253.707031 142.363281 253.164062 141.464844 C 253.023438 141.820312 252.867188 142.226562 252.710938 142.632812 C 252.347656 141.117188 252.292969 141.105469 250.976562 141.839844 C 250.566406 142.066406 250.09375 142.171875 249.605469 142.347656 C 249.539062 143.097656 249.460938 143.136719 248.714844 142.839844 C 248.25 142.65625 247.710938 142.34375 247.289062 142.441406 C 246.429688 142.640625 245.628906 143.082031 244.765625 143.4375 C 244.386719 142.285156 243.640625 142.875 242.976562 143.132812 C 242.347656 143.378906 241.769531 143.585938 241.601562 142.59375 C 240.597656 143.15625 239.25 141.777344 238.535156 143.335938 C 237.691406 142.476562 237.316406 142.511719 235.679688 143.484375 C 234.917969 142.859375 234.058594 142.53125 233.148438 142.539062 C 231.835938 142.554688 230.574219 142.503906 229.328125 142.007812 C 228.847656 141.816406 228.167969 141.707031 227.78125 142.429688 C 227.570312 142.832031 227.230469 143.167969 227.117188 143.308594 C 226.976562 144.066406 226.867188 144.621094 226.761719 145.1875 C 225.894531 145.003906 225.628906 144.617188 226.207031 143.882812 C 223.210938 142.300781 219.941406 143.257812 216.707031 142.414062 C 216.636719 143.941406 216.574219 145.277344 216.511719 146.609375 C 216.9375 146.679688 217.242188 146.730469 217.546875 146.78125 C 217.539062 147.441406 217.738281 148.140625 216.707031 148.171875 C 216.996094 148.558594 217.203125 148.832031 217.410156 149.109375 C 217.300781 149.132812 217.195312 149.15625 217.089844 149.179688 C 217.113281 149.601562 217.167969 150.023438 217.148438 150.441406 C 217.132812 150.789062 217.074219 151.414062 216.964844 151.429688 C 216.035156 151.5625 216.535156 152.230469 216.378906 152.734375 C 216.691406 152.625 216.925781 152.546875 217.144531 152.472656 C 217.554688 152.925781 217.621094 153.292969 217.476562 153.953125 C 217.210938 155.191406 217.015625 156.609375 217.367188 157.773438 C 217.800781 159.199219 217.792969 160.382812 217.105469 161.644531 C 216.671875 162.433594 216.957031 163.300781 217.820312 163.765625 C 217.457031 163.839844 217.164062 163.902344 217.0625 163.921875 C 216.886719 165.644531 216.726562 167.242188 216.558594 168.890625 C 216.929688 168.976562 217.1875 169.03125 217.574219 169.121094 C 217.109375 169.515625 216.773438 169.796875 216.398438 170.117188 C 217.246094 170.59375 217.550781 171.160156 217.242188 172.136719 C 217.03125 172.820312 217.160156 173.621094 217.15625 174.371094 C 217.144531 176.445312 217.65625 178.542969 216.863281 180.578125 C 216.730469 180.921875 216.46875 181.382812 216.589844 181.617188 C 216.738281 181.902344 217.230469 182.007812 217.679688 182.25 C 216.796875 182.96875 216.976562 183.839844 217.34375 184.71875 C 217.445312 184.960938 217.714844 185.152344 217.761719 185.394531 C 217.945312 186.359375 218.074219 187.335938 218.234375 188.378906 C 220.882812 188.378906 223.511719 188.378906 226.136719 188.378906 C 230.296875 188.378906 234.457031 188.363281 238.617188 188.402344 C 238.960938 188.40625 239.304688 188.761719 239.703125 188.984375 C 240.433594 188.113281 241.488281 188.039062 242.078125 189 C 243.128906 187.875 244.421875 188.582031 245.59375 188.378906 C 245.625 188.46875 245.65625 188.5625 245.6875 188.652344 C 245.238281 188.941406 244.789062 189.226562 244.328125 189.523438 C 244.410156 189.578125 244.5 189.691406 244.558594 189.675781 C 245.515625 189.429688 246.445312 189.238281 247.304688 189.984375 C 247.359375 190.03125 247.910156 189.699219 247.890625 189.597656 C 247.734375 188.640625 248.523438 188.667969 249.027344 188.523438 C 249.589844 188.359375 250.214844 188.449219 250.355469 189.179688 C 250.523438 190.050781 251.164062 190.15625 251.8125 190.125 C 252.339844 190.097656 252.851562 189.804688 253.382812 189.730469 C 254.875 189.515625 256.371094 189.269531 257.875 189.203125 C 258.675781 189.164062 259.488281 189.464844 260.300781 189.613281 C 260.28125 189.6875 260.261719 189.765625 260.242188 189.839844 C 260.082031 189.894531 259.921875 189.953125 259.757812 190.007812 C 259.765625 190.105469 259.773438 190.203125 259.785156 190.300781 C 261.179688 189.304688 262.585938 189.214844 264.046875 190.269531 C 264.121094 189.175781 263.933594 188.199219 264.296875 187.515625 C 264.789062 186.601562 264.867188 185.769531 264.757812 184.808594 " fill-opacity="1" fill-rule="nonzero"/></g><g clip-path="url(#id7)"><path fill="#ff8c20" d="M 259.644531 174.5 C 258.429688 174.550781 257.441406 173.648438 257.398438 172.457031 C 257.351562 171.308594 258.277344 170.328125 259.4375 170.292969 C 260.628906 170.253906 261.53125 171.132812 261.582031 172.375 C 261.628906 173.460938 260.71875 174.457031 259.644531 174.5 Z M 256.675781 166.824219 L 256.621094 166.9375 C 256.554688 167.066406 256.394531 167.117188 256.269531 167.054688 L 256.152344 166.996094 C 256.027344 166.929688 255.972656 166.769531 256.039062 166.640625 L 256.097656 166.527344 C 256.164062 166.398438 256.320312 166.347656 256.449219 166.410156 L 256.5625 166.46875 C 256.691406 166.535156 256.742188 166.695312 256.675781 166.824219 Z M 255.824219 166.25 L 255.699219 166.496094 C 255.640625 166.609375 255.5 166.65625 255.386719 166.597656 L 255.222656 166.511719 C 255.109375 166.453125 255.0625 166.3125 255.121094 166.199219 L 255.242188 165.953125 C 255.300781 165.839844 255.441406 165.792969 255.554688 165.851562 L 255.71875 165.9375 C 255.835938 165.996094 255.878906 166.132812 255.824219 166.25 Z M 254.855469 165.636719 L 254.726562 165.890625 C 254.652344 166.03125 254.476562 166.089844 254.335938 166.015625 L 254.265625 165.980469 C 254.121094 165.910156 254.0625 165.730469 254.136719 165.585938 L 254.261719 165.335938 C 254.335938 165.191406 254.511719 165.132812 254.65625 165.207031 L 254.726562 165.242188 C 254.867188 165.316406 254.925781 165.492188 254.855469 165.636719 Z M 253.9375 165.042969 L 253.832031 165.25 C 253.75 165.410156 253.554688 165.476562 253.394531 165.394531 L 253.375 165.382812 C 253.214844 165.300781 253.148438 165.101562 253.230469 164.941406 L 253.332031 164.738281 C 253.414062 164.574219 253.613281 164.511719 253.773438 164.59375 L 253.792969 164.601562 C 253.953125 164.683594 254.019531 164.882812 253.9375 165.042969 Z M 253.019531 164.417969 L 252.90625 164.648438 C 252.828125 164.800781 252.636719 164.867188 252.480469 164.785156 L 252.441406 164.765625 C 252.285156 164.6875 252.222656 164.496094 252.304688 164.339844 L 252.417969 164.113281 C 252.496094 163.957031 252.683594 163.894531 252.839844 163.972656 L 252.882812 163.996094 C 253.035156 164.074219 253.097656 164.265625 253.019531 164.417969 Z M 252.160156 163.800781 L 252.046875 164.023438 C 251.957031 164.199219 251.746094 164.269531 251.574219 164.179688 L 251.550781 164.167969 C 251.378906 164.082031 251.308594 163.867188 251.394531 163.691406 L 251.507812 163.46875 C 251.597656 163.296875 251.808594 163.226562 251.980469 163.316406 L 252.003906 163.328125 C 252.175781 163.414062 252.246094 163.628906 252.160156 163.800781 Z M 251.230469 163.199219 L 251.128906 163.398438 C 251.039062 163.578125 250.820312 163.652344 250.640625 163.5625 C 250.460938 163.46875 250.390625 163.246094 250.480469 163.066406 L 250.582031 162.867188 C 250.671875 162.6875 250.890625 162.617188 251.070312 162.707031 C 251.25 162.796875 251.320312 163.019531 251.230469 163.199219 Z M 248.941406 161.683594 L 248.742188 162.074219 C 248.648438 162.257812 248.425781 162.332031 248.242188 162.238281 L 248.097656 162.167969 C 247.917969 162.074219 247.84375 161.847656 247.9375 161.664062 L 248.132812 161.269531 C 248.226562 161.085938 248.453125 161.011719 248.632812 161.105469 L 248.777344 161.179688 C 248.960938 161.273438 249.035156 161.5 248.941406 161.683594 Z M 247.78125 160.867188 L 247.566406 161.292969 C 247.476562 161.476562 247.25 161.546875 247.066406 161.457031 L 246.902344 161.371094 C 246.71875 161.277344 246.648438 161.050781 246.738281 160.867188 L 246.953125 160.445312 C 247.046875 160.261719 247.269531 160.1875 247.453125 160.28125 L 247.617188 160.367188 C 247.800781 160.460938 247.875 160.683594 247.78125 160.867188 Z M 246.605469 160.0625 L 246.386719 160.503906 C 246.292969 160.6875 246.066406 160.757812 245.886719 160.667969 L 245.703125 160.574219 C 245.523438 160.480469 245.449219 160.253906 245.542969 160.070312 L 245.765625 159.628906 C 245.855469 159.445312 246.082031 159.375 246.265625 159.464844 L 246.445312 159.558594 C 246.625 159.652344 246.699219 159.878906 246.605469 160.0625 Z M 245.410156 159.265625 L 245.1875 159.707031 C 245.09375 159.890625 244.871094 159.964844 244.6875 159.871094 L 244.507812 159.777344 C 244.328125 159.683594 244.253906 159.457031 244.34375 159.277344 L 244.566406 158.835938 C 244.660156 158.652344 244.882812 158.578125 245.066406 158.671875 L 245.246094 158.761719 C 245.429688 158.855469 245.503906 159.082031 245.410156 159.265625 Z M 237.605469 157.546875 C 237.527344 157.515625 237.453125 157.4375 237.414062 157.363281 C 237.089844 156.738281 236.773438 156.113281 236.496094 155.5625 C 239.113281 156.050781 239.242188 156.515625 239.882812 158.410156 C 239.128906 158.125 238.363281 157.839844 237.605469 157.546875 Z M 233.175781 156.804688 C 233.460938 156.355469 233.714844 155.929688 233.992188 155.523438 C 234.179688 155.25 234.460938 155.214844 234.773438 155.292969 C 235.800781 155.554688 236.28125 156.347656 236.710938 157.25 C 235.527344 157.101562 234.394531 156.957031 233.175781 156.804688 Z M 234.6875 173.699219 C 233.859375 173.71875 233.164062 173.03125 233.140625 172.167969 C 233.117188 171.328125 233.796875 170.609375 234.640625 170.585938 C 235.46875 170.5625 236.210938 171.253906 236.238281 172.078125 C 236.265625 172.964844 235.582031 173.683594 234.6875 173.699219 Z M 232.386719 156.859375 C 232.105469 156.875 231.824219 156.867188 231.515625 156.867188 C 231.898438 156.03125 232.453125 155.433594 233.421875 155.230469 C 233.121094 155.773438 232.863281 156.246094 232.597656 156.710938 C 232.554688 156.78125 232.460938 156.855469 232.386719 156.859375 Z M 228.140625 173.492188 C 227.398438 173.488281 226.808594 172.878906 226.8125 172.121094 C 226.816406 171.410156 227.433594 170.792969 228.148438 170.792969 C 228.910156 170.789062 229.507812 171.382812 229.503906 172.128906 C 229.496094 172.9375 228.933594 173.496094 228.140625 173.492188 Z M 262.542969 170.894531 C 262.375 170.746094 262.203125 170.613281 261.972656 170.425781 C 262.675781 170.371094 263.363281 170.320312 264.046875 170.269531 L 264.046875 167.8125 C 263.605469 167.824219 263.164062 167.835938 262.726562 167.84375 C 262.714844 167.792969 262.714844 167.804688 262.707031 167.753906 C 263.152344 167.570312 263.601562 167.386719 264.046875 167.207031 L 264.046875 165.652344 C 262.941406 165.902344 261.828125 166.152344 260.710938 166.402344 C 261.695312 165.191406 262.945312 163.691406 264.046875 162.378906 L 264.046875 159.976562 L 260.71875 160.867188 L 258.226562 163.933594 C 258.011719 164.273438 257.5625 164.371094 257.230469 164.144531 C 255.164062 162.738281 248.359375 158.132812 245.511719 156.476562 C 243.578125 155.347656 241.597656 154.277344 239.414062 153.707031 C 235.941406 152.800781 232.972656 153.707031 230.597656 156.398438 C 230.199219 156.847656 229.832031 157.054688 229.269531 157.132812 C 227.988281 157.3125 226.738281 157.628906 225.566406 158.222656 C 223.820312 159.105469 223.636719 160.554688 224.335938 162.105469 C 224.894531 163.34375 225.875 164.253906 226.921875 165.074219 C 228.21875 166.09375 229.625 166.9375 231.117188 167.636719 C 231.175781 167.664062 231.230469 167.707031 231.414062 167.816406 C 230.636719 168.078125 229.96875 168.339844 229.285156 168.527344 C 226.933594 169.171875 224.535156 169.566406 222.117188 169.863281 C 220.613281 170.046875 217.445312 170.4375 217.367188 170.546875 C 218.445312 170.597656 227.074219 170.730469 227.074219 170.730469 C 226.953125 170.878906 226.820312 171.015625 226.722656 171.171875 C 226.351562 171.765625 226.300781 172.378906 226.648438 173 C 227 173.636719 227.566406 173.949219 228.273438 173.890625 C 229.394531 173.800781 230.464844 173.5 231.410156 172.863281 C 232.089844 172.40625 232.097656 171.863281 231.398438 171.425781 C 230.910156 171.121094 230.367188 170.90625 229.78125 170.613281 C 231.03125 170.566406 232.226562 170.523438 233.476562 170.476562 C 233.402344 170.574219 233.355469 170.644531 233.296875 170.707031 C 232.597656 171.429688 232.464844 172.410156 232.996094 173.214844 C 233.4375 173.890625 234.242188 174.214844 235.039062 174.128906 C 236.210938 174 237.328125 173.667969 238.339844 173.019531 C 238.4375 172.957031 238.585938 172.84375 238.667969 172.761719 C 239.109375 172.328125 239.152344 171.90625 238.660156 171.550781 C 238.125 171.167969 237.503906 170.90625 236.917969 170.601562 C 236.761719 170.523438 236.582031 170.484375 236.414062 170.429688 C 236.414062 170.394531 236.417969 170.359375 236.417969 170.324219 C 237.214844 170.324219 238.015625 170.28125 238.808594 170.332031 C 240.789062 170.464844 242.769531 170.648438 244.753906 170.792969 C 246.734375 170.9375 248.714844 171.085938 250.703125 171.179688 C 252.773438 171.28125 254.84375 171.265625 256.90625 170.984375 C 256.960938 170.980469 257.015625 170.984375 257.089844 170.984375 C 256.988281 171.351562 256.847656 171.699219 256.800781 172.058594 C 256.574219 173.746094 257.9375 175.226562 259.628906 175.128906 C 260.8125 175.058594 261.84375 174.605469 262.675781 173.75 C 263.570312 172.824219 263.511719 171.75 262.542969 170.894531 " fill-opacity="1" fill-rule="nonzero"/></g><g clip-path="url(#id8)"><path fill="#ffffff" d="M 253.125 145.148438 C 253.152344 145.066406 253.246094 144.925781 253.246094 144.785156 C 253.246094 144.644531 253.480469 144.980469 254.109375 145.070312 C 254.738281 145.15625 255.601562 145.0625 255.660156 145.148438 C 255.722656 145.238281 255.585938 145.695312 255.363281 145.917969 C 255.140625 146.140625 254.945312 146.269531 255.019531 146.578125 C 255.09375 146.890625 255.324219 147.480469 255.308594 148.007812 C 255.296875 148.53125 255.53125 148.59375 255.582031 149.078125 C 255.628906 149.5625 255.539062 149.476562 255.480469 149.828125 C 255.417969 150.179688 255.464844 150.664062 254.914062 151.203125 C 254.359375 151.742188 254.421875 151.402344 254.367188 151.863281 C 254.3125 152.320312 253.746094 151.855469 253.847656 152.652344 C 253.949219 153.445312 254.183594 153.109375 254.304688 153.761719 C 254.425781 154.417969 254.574219 154.542969 254.886719 154.589844 C 255.195312 154.640625 255.507812 154.785156 255.789062 155.582031 C 256.074219 156.382812 256.265625 156.148438 256.507812 156.25 C 256.75 156.351562 257.671875 156.925781 257.683594 157.402344 C 257.691406 157.875 257.632812 158.109375 257.8125 158.464844 C 257.996094 158.816406 257.964844 158.867188 258.035156 159.210938 C 258.105469 159.554688 258.371094 160.101562 258.441406 160.363281 C 258.511719 160.625 258.917969 161.183594 258.671875 161.515625 C 258.429688 161.851562 258.1875 162.023438 258.523438 162.183594 C 258.855469 162.34375 259.070312 162.710938 259.148438 162.871094 C 259.230469 163.03125 259.609375 164.167969 259.582031 165.066406 C 259.554688 165.96875 259.566406 166.535156 259.769531 166.882812 C 259.972656 167.234375 260.011719 167.933594 259.769531 168.136719 C 259.527344 168.339844 259.449219 168.644531 259.9375 169.402344 C 260.425781 170.160156 260.234375 170.402344 259.980469 170.523438 C 259.726562 170.644531 258.867188 171.148438 259.179688 171.605469 C 259.492188 172.058594 259.890625 172.585938 260.039062 172.71875 C 260.1875 172.855469 260.703125 173.070312 260.6875 174.035156 C 260.675781 175 260.925781 174.601562 261.09375 174.84375 C 261.261719 175.085938 261.253906 175.292969 262.074219 175.113281 C 262.894531 174.929688 262.671875 175.316406 263.097656 175.40625 C 263.523438 175.496094 263.855469 175.234375 264.21875 175.78125 C 264.585938 176.324219 264.9375 176.910156 265.089844 177.105469 C 265.242188 177.296875 265.453125 177.488281 264.785156 177.984375 C 264.117188 178.480469 255.769531 184.515625 255.667969 184.632812 C 255.566406 184.757812 252.664062 187.355469 252.390625 187.789062 C 252.117188 188.222656 251.730469 188.414062 251.226562 188.476562 C 250.71875 188.535156 244.992188 190.386719 245.273438 189.214844 C 245.558594 188.042969 245.660156 187.605469 245.183594 187.40625 C 244.707031 187.203125 243.714844 187.648438 243.402344 186.828125 C 243.089844 186.007812 242.355469 187.257812 241.953125 186.425781 C 241.8125 186.125 241.824219 185.632812 240.933594 185.585938 C 240.933594 185.585938 240.324219 185.347656 240.664062 184.613281 L 239.257812 183.515625 L 219.519531 168.867188 C 219.519531 168.867188 218.957031 168.496094 219.023438 168.175781 C 219.09375 167.859375 219.050781 166.628906 219.097656 166.5 C 219.144531 166.371094 219.214844 164.914062 219.390625 164.816406 C 219.566406 164.714844 220.878906 163.980469 221.082031 163.714844 C 221.285156 163.453125 221.398438 163.441406 221.691406 163.46875 C 221.980469 163.492188 222.183594 163.285156 222.351562 163.125 C 222.519531 162.960938 222.882812 162.820312 223.242188 162.976562 C 223.597656 163.128906 223.875 163.164062 224.105469 162.90625 C 224.335938 162.652344 224.199219 162.375 224.703125 162.472656 C 225.203125 162.570312 225.890625 162.546875 226.199219 162.414062 C 226.511719 162.277344 227.070312 162.035156 227.441406 161.269531 C 227.8125 160.503906 228.753906 160.886719 229.03125 160.601562 C 229.308594 160.320312 229.457031 160.164062 229.765625 160.152344 C 230.078125 160.136719 230.59375 160.160156 230.390625 159.777344 C 230.1875 159.394531 230.023438 159.433594 230.074219 159.136719 C 230.125 158.835938 229.867188 158.28125 230.203125 158.207031 C 230.542969 158.128906 230.347656 158.246094 230.644531 158.242188 C 230.945312 158.234375 231.894531 158.222656 231.941406 157.8125 C 231.984375 157.402344 231.972656 157.300781 232.132812 157.230469 C 232.292969 157.160156 233.105469 157.148438 233.261719 157.15625 C 233.417969 157.160156 235.542969 157.628906 235.542969 157.164062 C 235.542969 156.699219 235.851562 156.875 235.933594 156.632812 C 236.015625 156.390625 235.558594 156.21875 235.316406 155.875 C 235.074219 155.53125 235.132812 154.90625 234.910156 154.675781 C 234.6875 154.449219 234.6875 154.289062 234.851562 154.113281 C 235.011719 153.933594 234.808594 153.414062 234.578125 153.46875 C 234.34375 153.527344 234.738281 152.65625 234.71875 152.355469 C 234.699219 152.050781 234.832031 151.132812 234.535156 150.898438 C 234.238281 150.664062 233.550781 149.988281 233.714844 149.847656 C 233.875 149.707031 234.023438 150.035156 234.375 149.890625 C 234.726562 149.746094 234.867188 149.886719 236.019531 148.84375 C 237.175781 147.796875 237.59375 148.074219 237.671875 148.09375 C 237.753906 148.117188 238.402344 148.265625 238.46875 148.027344 C 238.539062 147.792969 238.453125 147.675781 239.292969 147.324219 C 240.132812 146.96875 240.246094 146.71875 240.40625 146.644531 C 240.566406 146.574219 240.730469 146.496094 241.105469 146.484375 C 241.480469 146.472656 242.847656 146.363281 243.070312 146.375 C 243.292969 146.390625 244.320312 146.175781 244.683594 145.886719 C 245.046875 145.59375 245.390625 145.84375 245.628906 145.695312 C 245.863281 145.546875 246.527344 145.5625 246.660156 145.582031 C 246.796875 145.601562 248.054688 145.664062 248.226562 145.625 C 248.398438 145.589844 248.558594 145.929688 248.902344 146.011719 C 249.246094 146.097656 249.78125 145.828125 250.023438 145.6875 C 250.265625 145.550781 250.890625 145.617188 250.957031 145.34375 C 251.019531 145.066406 251.175781 144.847656 251.332031 144.898438 C 251.488281 144.949219 251.890625 145.242188 252.050781 145.34375 C 252.21875 145.449219 253.03125 145.429688 253.125 145.148438 " fill-opacity="1" fill-rule="nonzero"/></g><g fill="#ffffff" fill-opacity="1"><g transform="translate(151.490253, 221.400043)"><g><path d="M 1.800781 0 L 17.097656 0 L 17.097656 -7.199219 L 20.695312 -7.199219 L 20.695312 0 L 26.742188 0 L 26.742188 -3.886719 L 24.582031 -3.886719 L 24.582031 -11.085938 L 13.210938 -11.085938 L 13.210938 -3.921875 L 5.6875 -3.921875 L 5.6875 -11.085938 L 1.800781 -11.085938 Z M 4.425781 1.800781 L 4.425781 5.6875 L 8.3125 5.6875 L 8.3125 1.800781 Z M 10.257812 1.800781 L 10.257812 5.6875 L 14.144531 5.6875 L 14.144531 1.800781 Z M 10.257812 1.800781 "/></g></g></g><g fill="#ffffff" fill-opacity="1"><g transform="translate(177.86965, 221.400043)"><g><path d="M 0.972656 -16.84375 L 0.972656 -12.957031 L 4.859375 -12.957031 L 4.859375 -16.84375 Z M 6.765625 -16.84375 L 6.765625 -12.957031 L 10.652344 -12.957031 L 10.652344 -16.84375 Z M 7.378906 -3.886719 L 7.378906 -11.085938 L 3.492188 -11.085938 L 3.492188 -3.886719 L -0.359375 -3.886719 L -0.359375 0 L 11.230469 0 L 11.230469 -3.886719 Z M 7.378906 -3.886719 "/></g></g></g><g fill="#ffffff" fill-opacity="1"><g transform="translate(188.738103, 221.400043)"><g><path d="M 5.6875 -3.886719 L 5.6875 -21.882812 L 1.800781 -21.882812 L 1.800781 -3.886719 L -0.359375 -3.886719 L -0.359375 0 L 7.847656 0 L 7.847656 -3.886719 Z M 5.6875 -3.886719 "/></g></g></g><g fill="#ffffff" fill-opacity="1"><g transform="translate(196.22366, 221.400043)"><g><path d="M -0.359375 0 L 14.398438 0 L 14.398438 -11.085938 L 1.800781 -11.085938 L 1.800781 -7.199219 L 10.511719 -7.199219 L 10.511719 -3.886719 L -0.359375 -3.886719 Z M -0.359375 0 "/></g></g></g><g fill="#ffffff" fill-opacity="1"><g transform="translate(212.418377, 221.400043)"><g><path d="M 1.800781 7.199219 L 9.285156 7.199219 L 9.285156 -11.085938 L 5.398438 -11.085938 L 5.398438 3.3125 L 1.800781 3.3125 Z M 1.800781 7.199219 "/></g></g></g><g fill="#ffffff" fill-opacity="1"><g transform="translate(159.68587, 241.350087)"><g><path d="M 3.097656 -1.296875 L 3.097656 -3.695312 L 1.800781 -3.695312 L 1.800781 1.105469 L 0.601562 1.105469 L 0.601562 2.398438 L 3.097656 2.398438 L 3.097656 0 L 3.816406 0 L 3.816406 -1.296875 Z M 3.097656 -1.296875 "/></g></g></g><g fill="#ffffff" fill-opacity="1"><g transform="translate(163.381876, 241.350087)"><g><path d="M 0.40625 -4.296875 L 2.089844 -4.296875 L 2.089844 -5.050781 L 1.332031 -5.050781 L 1.332031 -5.4375 L 2.089844 -5.4375 L 2.089844 -6.191406 L 0.574219 -6.191406 L 0.574219 -5.050781 L 0.40625 -5.050781 Z M -0.132812 0 L 1.894531 0 L 1.894531 -3.695312 L 0.589844 -3.695312 L 0.589844 -1.296875 L -0.132812 -1.296875 Z M -0.132812 0 "/></g></g></g><g fill="#ffffff" fill-opacity="1"><g transform="translate(165.889883, 241.350087)"><g><path d="M 0.601562 0 L 1.894531 0 L 1.894531 -7.296875 L 0.601562 -7.296875 Z M 0.601562 0 "/></g></g></g><g fill="#ffffff" fill-opacity="1"><g transform="translate(168.385885, 241.350087)"><g><path d="M 3.097656 -5.605469 L 1.800781 -5.605469 L 1.800781 -4.308594 L 3.097656 -4.308594 Z M 3.097656 -1.296875 L 3.097656 -3.695312 L 1.800781 -3.695312 L 1.800781 1.105469 L 0.601562 1.105469 L 0.601562 2.398438 L 3.097656 2.398438 L 3.097656 0 L 3.816406 0 L 3.816406 -1.296875 Z M 3.097656 -1.296875 "/></g></g></g><g fill="#ffffff" fill-opacity="1"><g transform="translate(172.081892, 241.350087)"><g><path d="M 4.800781 -1.296875 L 4.800781 -3.695312 L 0.601562 -3.695312 L 0.601562 -2.398438 L 3.503906 -2.398438 L 3.503906 -1.296875 L -0.121094 -1.296875 L -0.121094 0 L 5.519531 0 L 5.519531 -1.296875 Z M 1.96875 1.894531 L 3.265625 1.894531 L 3.265625 0.601562 L 1.96875 0.601562 Z M 1.96875 1.894531 "/></g></g></g><g fill="#ffffff" fill-opacity="1"><g transform="translate(177.481901, 241.350087)"><g><path d="M -0.121094 0 L 1.894531 0 L 1.894531 -7.296875 L 0.601562 -7.296875 L 0.601562 -1.296875 L -0.121094 -1.296875 Z M -0.121094 0 "/></g></g></g><g fill="#ffffff" fill-opacity="1"><g transform="translate(179.977903, 241.350087)"><g><path d="M 0.601562 0 L 1.894531 0 L 1.894531 -7.296875 L 0.601562 -7.296875 Z M 0.601562 0 "/></g></g></g><g fill="#ffffff" fill-opacity="1"><g transform="translate(182.473905, 241.350087)"><g/></g></g><g fill="#ffffff" fill-opacity="1"><g transform="translate(184.273911, 241.350087)"><g><path d="M 8.207031 -8.101562 L 6.898438 -8.101562 L 6.898438 -6.804688 L 8.207031 -6.804688 Z M 9.394531 -1.296875 L 9.394531 -6.203125 L 5.699219 -6.203125 L 5.699219 -2.496094 L 8.101562 -2.496094 L 8.101562 -1.296875 L 1.894531 -1.296875 L 1.894531 -2.496094 L 4.402344 -2.496094 L 4.402344 -3.804688 L 0.601562 -3.804688 L 0.601562 0 L 10.117188 0 L 10.117188 -1.296875 Z M 8.101562 -3.804688 L 6.996094 -3.804688 L 6.996094 -4.894531 L 8.101562 -4.894531 Z M 8.101562 -3.804688 "/></g></g></g><g fill="#ffffff" fill-opacity="1"><g transform="translate(194.269936, 241.350087)"><g><path d="M 4.378906 -7.546875 L 3.085938 -7.546875 L 3.085938 -6.253906 L 4.378906 -6.253906 Z M 3.421875 -5.59375 L 2.125 -5.59375 L 2.125 -4.296875 L 3.421875 -4.296875 Z M 4.066406 -4.296875 L 5.363281 -4.296875 L 5.363281 -5.59375 L 4.066406 -5.59375 Z M 6.898438 -1.296875 L 6.910156 -3.695312 L 5.605469 -3.695312 L 5.605469 -1.296875 L 4.402344 -1.296875 L 4.402344 -3.695312 L 3.097656 -3.695312 L 3.097656 -1.296875 L 1.894531 -1.296875 L 1.894531 -3.695312 L 0.601562 -3.695312 L 0.601562 -1.296875 L -0.121094 -1.296875 L -0.121094 0 L 7.621094 0 L 7.621094 -1.296875 Z M 6.898438 -1.296875 "/></g></g></g><g fill="#ffffff" fill-opacity="1"><g transform="translate(201.769947, 241.350087)"><g><path d="M 0.324219 -5.617188 L 0.324219 -4.320312 L 1.621094 -4.320312 L 1.621094 -5.617188 Z M 2.257812 -5.617188 L 2.257812 -4.320312 L 3.550781 -4.320312 L 3.550781 -5.617188 Z M 2.460938 -1.296875 L 2.460938 -3.695312 L 1.164062 -3.695312 L 1.164062 -1.296875 L -0.121094 -1.296875 L -0.121094 0 L 3.742188 0 L 3.742188 -1.296875 Z M 2.460938 -1.296875 "/></g></g></g><g fill="#ffffff" fill-opacity="1"><g transform="translate(205.393959, 241.350087)"><g><path d="M -0.121094 0 L 6.804688 0 L 6.804688 -3.660156 L 1.894531 -3.671875 L 1.894531 -4.703125 L 6.804688 -4.703125 L 6.804688 -6.023438 L 0.601562 -6.023438 L 0.601562 -2.363281 L 5.460938 -2.363281 L 5.460938 -1.296875 L -0.121094 -1.296875 Z M -0.121094 0 "/></g></g></g><g fill="#ffffff" fill-opacity="1"><g transform="translate(212.797976, 241.350087)"><g><path d="M 0.601562 0 L 1.894531 0 L 1.894531 -7.296875 L 0.601562 -7.296875 Z M 0.601562 0 "/></g></g></g></svg>